<svg xmlns="http://www.w3.org/2000/svg" x="0px" y="0px" width="100" height="100" viewBox="0 0 48 48">
<path d="M 11 5 C 8.2504839 5 6 7.2504839 6 10 L 6 39 C 6 41.749516 8.2504839 44 11 44 L 37 44 C 39.749516 44 42 41.749516 42 39 L 42 23 A 1.0001 1.0001 0 1 0 40 23 L 40 39 C 40 40.668484 38.668484 42 37 42 L 11 42 C 9.3315161 42 8 40.668484 8 39 L 8 10 C 8 8.3315161 9.3315161 7 11 7 L 26.757812 7 C 26.839739 7 26.919655 7.0135844 27 7.0234375 L 27 16 C 27 18.197334 28.802666 20 31 20 L 40.847656 20 A 1.0001 1.0001 0 0 0 41.998047 19.183594 A 1.0001 1.0001 0 0 0 42.013672 18.990234 A 1.0001 1.0001 0 0 0 42.013672 18.984375 A 1.0001 1.0001 0 0 0 42.007812 18.890625 A 1.0001 1.0001 0 0 0 42.007812 18.884766 A 1.0001 1.0001 0 0 0 41.990234 18.792969 A 1.0001 1.0001 0 0 0 41.623047 18.207031 A 1.0001 1.0001 0 0 0 41.617188 18.203125 L 29.585938 6.171875 C 28.836398 5.4210018 27.818469 5 26.757812 5 L 11 5 z M 29 8.4140625 L 38.585938 18 L 31 18 C 29.883334 18 29 17.116666 29 16 L 29 8.4140625 z M 15.5 27 A 1.5 2 0 0 0 15.5 31 A 1.5 2 0 0 0 15.5 27 z M 32.5 27 A 1.5 2 0 0 0 32.5 31 A 1.5 2 0 0 0 32.5 27 z M 19.958984 31.988281 A 1.0001 1.0001 0 0 0 19.130859 33.496094 C 19.130859 33.496094 20.67631 36 24 36 C 27.32369 36 28.869141 33.496094 28.869141 33.496094 A 1.0007574 1.0007574 0 1 0 27.130859 32.503906 C 27.130859 32.503906 26.39031 34 24 34 C 21.60969 34 20.869141 32.503906 20.869141 32.503906 A 1.0001 1.0001 0 0 0 19.958984 31.988281 z"></path>
</svg>